<svg width="146" height="160" viewBox="0 0 146 160" fill="none" xmlns="http://www.w3.org/2000/svg">
<g style="mix-blend-mode:soft-light" clip-path="url(#clip0_72_815)">
<path d="M125.85 47.6483L110.154 43.4424L112.798 32.9367L102.334 30.1328L99.6898 40.6386L78.7614 35.0308L81.4054 24.5251L70.9412 21.7212L68.2972 32.227L52.6009 28.0211C46.8299 26.4748 40.9509 29.9291 39.4927 35.723L20.9846 109.263C19.5264 115.057 23.0337 121.026 28.8047 122.573L102.054 142.2C107.825 143.746 113.704 140.292 115.162 134.498L133.67 60.9579C135.129 55.1639 131.621 49.1946 125.85 47.6483ZM31.4488 112.067L48.6349 43.7797L121.884 63.4068L123.206 58.154L104.709 131.697L31.4488 112.067Z" fill="black" fill-opacity="0.2"/>
<path d="M56.4551 57.0893L108.776 71.1087L106.132 81.6144L53.8111 67.595L56.4551 57.0893ZM51.167 78.1007L77.3275 85.1104L74.6835 95.6162L48.523 88.6065L51.167 78.1007Z" fill="black" fill-opacity="0.2"/>
</g>
<defs>
<clipPath id="clip0_72_815">
<rect width="130" height="130" fill="white" transform="matrix(0.965926 0.258819 -0.244064 0.969759 31.7285 0)"/>
</clipPath>
</defs>
</svg>
