<svg width="160" height="160" viewBox="0 0 160 160" fill="none" xmlns="http://www.w3.org/2000/svg">
<g style="mix-blend-mode:soft-light" clip-path="url(#clip0_72_821)">
<path d="M17.5646 105.328C18.1453 107.054 19.546 108.377 21.304 108.848L99.7854 129.877C101.878 130.438 104.106 129.7 105.443 127.995L130.953 95.5757C131.51 94.8722 131.884 94.0412 132.039 93.1574C132.195 92.2737 132.128 91.3651 131.845 90.5136C131.562 89.6621 131.071 88.8945 130.417 88.28C129.763 87.6655 128.967 87.2235 128.099 86.9938L122.867 85.5918L128.475 64.6634C130.021 58.8924 126.585 52.9417 120.814 51.3954L88.8987 42.8436L79.4538 30.2918C78.7282 29.3234 77.6983 28.6268 76.5295 28.3137L50.369 21.3041C44.598 19.7577 38.6472 23.1934 37.1009 28.9644L17.4738 102.214L17.5104 102.224C17.2252 103.241 17.244 104.321 17.5646 105.328V105.328ZM99.1414 118.489L32.0449 100.51L50.267 77.3542L117.363 95.3326L99.1414 118.489ZM118.011 61.8596L112.403 82.788L49.6177 65.9647C47.5248 65.4039 45.2972 66.1417 43.9598 67.847L34.7668 79.5321L44.7612 42.2325L118.011 61.8596Z" fill="#0B0B0B" fill-opacity="0.2"/>
</g>
<defs>
<clipPath id="clip0_72_821">
<rect width="130" height="130" fill="white" transform="translate(33.6465) rotate(15)"/>
</clipPath>
</defs>
</svg>
