<svg width="138" height="160" viewBox="0 0 138 160" fill="none" xmlns="http://www.w3.org/2000/svg">
<g style="mix-blend-mode:soft-light" clip-path="url(#clip0_72_818)">
<path d="M75.4028 95.3047C84.0717 97.6275 92.9821 92.483 95.3049 83.8142C97.6277 75.1454 92.4833 66.2349 83.8145 63.9121C75.1456 61.5893 66.2352 66.7338 63.9124 75.4026C61.5896 84.0714 66.734 92.9819 75.4028 95.3047Z" stroke="black" stroke-opacity="0.15" stroke-width="8" stroke-linecap="round" stroke-linejoin="round"/>
<path d="M114.12 105.679C113.001 107.07 112.324 108.765 112.177 110.545C112.03 112.325 112.419 114.108 113.295 115.664L113.525 116.062C114.237 117.295 114.7 118.656 114.886 120.067C115.072 121.478 114.979 122.913 114.61 124.288C114.242 125.663 113.606 126.952 112.739 128.081C111.872 129.211 110.791 130.158 109.557 130.869C108.325 131.581 106.964 132.044 105.553 132.23C104.141 132.417 102.707 132.323 101.332 131.954C99.9565 131.586 98.6675 130.95 97.5383 130.083C96.409 129.216 95.4618 128.135 94.7506 126.901L94.5208 126.503C93.6109 124.967 92.2616 123.738 90.6467 122.976C89.0319 122.213 87.2257 121.952 85.461 122.225C83.7358 122.474 82.121 123.222 80.8152 124.376C79.5095 125.531 78.5698 127.042 78.112 128.724L77.8737 129.613C77.13 132.389 75.3144 134.755 72.8261 136.191C70.3379 137.628 67.3809 138.017 64.6056 137.274C61.8303 136.53 59.4641 134.714 58.0275 132.226C56.591 129.738 56.2017 126.781 56.9453 124.006L57.0715 123.535C57.495 121.792 57.3845 119.962 56.7542 118.283C56.124 116.604 55.0033 115.154 53.5377 114.12C52.1463 113.001 50.4514 112.324 48.6717 112.177C46.8919 112.03 45.109 112.419 43.5527 113.295L43.1546 113.525C41.9221 114.238 40.5612 114.7 39.1498 114.886C37.7383 115.073 36.304 114.979 34.9289 114.61C33.5537 114.242 32.2647 113.606 31.1354 112.739C30.0062 111.872 29.0589 110.791 28.3478 109.558C27.6353 108.325 27.1727 106.964 26.9864 105.553C26.8002 104.141 26.894 102.707 27.2625 101.332C27.631 99.9566 28.2669 98.6676 29.1339 97.5383C30.0009 96.4091 31.0819 95.4618 32.3153 94.7507L32.7133 94.5209C34.2499 93.611 35.4787 92.2616 36.2412 90.6468C37.0037 89.032 37.265 87.2258 36.9914 85.4611C36.7428 83.7359 35.9952 82.121 34.8406 80.8153C33.6859 79.5095 32.1747 78.5699 30.4929 78.1121L29.6034 77.8737C26.8282 77.1301 24.462 75.3145 23.0254 72.8262C21.5888 70.338 21.1995 67.381 21.9431 64.6057C22.6867 61.8304 24.5024 59.4642 26.9906 58.0276C29.4789 56.591 32.4359 56.2017 35.2112 56.9454L35.6821 57.0715C37.4247 57.4951 39.2545 57.3845 40.9335 56.7543C42.6125 56.1241 44.063 55.0034 45.0966 53.5378C46.2159 52.1463 46.8928 50.4514 47.0398 48.6717C47.1868 46.892 46.7973 45.109 45.9216 43.5527L45.6917 43.1547C44.9792 41.9221 44.5166 40.5613 44.3304 39.1498C44.1442 37.7384 44.238 36.3041 44.6065 34.9289C44.9749 33.5538 45.6109 32.2647 46.4778 31.1355C47.3448 30.0063 48.4259 29.059 49.6592 28.3478C50.8918 27.6353 52.2527 27.1727 53.6641 26.9865C55.0755 26.8003 56.5098 26.8941 57.885 27.2626C59.2601 27.6311 60.5492 28.267 61.6784 29.134C62.8076 30.0009 63.7549 31.082 64.4661 32.3153L64.6959 32.7134C65.6058 34.25 66.9551 35.4788 68.5699 36.2413C70.1847 37.0038 71.9909 37.2651 73.7557 36.9915L74.1742 37.1036C75.8994 36.8551 77.5143 36.1074 78.82 34.9528C80.1258 33.7982 81.0654 32.2869 81.5232 30.6051L81.7616 29.7157C82.5052 26.9404 84.3209 24.5742 86.8091 23.1376C89.2973 21.701 92.2544 21.3117 95.0296 22.0553C97.8049 22.799 100.171 24.6146 101.608 27.1029C103.044 29.5911 103.434 32.5481 102.69 35.3234L102.564 35.7943C102.119 37.4797 102.177 39.2583 102.731 40.9111C103.284 42.5639 104.309 44.0188 105.679 45.0967C107.07 46.216 108.765 46.8928 110.545 47.0399C112.325 47.1869 114.108 46.7974 115.664 45.9216L116.062 45.6918C117.295 44.9793 118.655 44.5167 120.067 44.3305C121.478 44.1443 122.913 44.2381 124.288 44.6065C125.663 44.975 126.952 45.6109 128.081 46.4779C129.21 47.3449 130.158 48.426 130.869 49.6593C131.581 50.8918 132.044 52.2527 132.23 53.6642C132.416 55.0756 132.323 56.5099 131.954 57.8851C131.586 59.2602 130.95 60.5493 130.083 61.6785C129.216 62.8077 128.135 63.755 126.901 64.4661L126.503 64.6959C124.967 65.6058 123.738 66.9552 122.975 68.57C122.213 70.1848 121.952 71.991 122.225 73.7557L122.113 74.1743C122.362 75.8995 123.109 77.5144 124.264 78.8201C125.419 80.1258 126.93 81.0655 128.612 81.5233L129.501 81.7616C132.276 82.5053 134.643 84.3209 136.079 86.8092C137.516 89.2974 137.905 92.2544 137.161 95.0297C136.418 97.805 134.602 100.171 132.114 101.608C129.626 103.044 126.669 103.434 123.893 102.69L123.422 102.564C121.737 102.119 119.958 102.178 118.306 102.731C116.653 103.285 115.198 104.309 114.12 105.679V105.679Z" stroke="black" stroke-opacity="0.15" stroke-width="8" stroke-linecap="round" stroke-linejoin="round"/>
</g>
<defs>
<clipPath id="clip0_72_818">
<rect width="130" height="130" fill="white" transform="translate(33.6465) rotate(15)"/>
</clipPath>
</defs>
</svg>
